<svg xmlns="http://www.w3.org/2000/svg" xmlns:xlink="http://www.w3.org/1999/xlink" version="1.1" id="Layer_1" x="0px" y="0px" viewBox="10 0 156 32" xml:space="preserve" class="injected-svg Nav_logo__3wzxA" data-src="/static/media/NUGGS.be045c54.svg">
<g id="svglogo">
	<path id="NUGGS-15" fill="#ff1a1a" class="st0" d="M41,0V26h-6.9l-9.7-13v13h-8.1V0h7.9l8.8,12.2V0H41z M55.8,26.5c-7.4,0-12.2-4-12.2-11.2V0H52v14.6   c0,2.9,1.5,4.6,3.8,4.6c2.3,0,3.8-1.7,3.8-4.6V0h8.4v15.3C67.9,22.4,63.2,26.5,55.8,26.5z M87.2,17.7h-3.1v-5.8h11.6v2.9   c0,7.2-4.9,11.7-12.3,11.7c-8.1,0-13.6-5.6-13.6-13.5S75.3-0.5,83.3-0.5c7.3,0,11.3,4.1,12.3,9.5H87c-0.5-1.5-1.8-2.3-3.6-2.3   c-3.4,0-5.1,2.7-5.1,6.3c0,3.9,2,6.3,5.1,6.3C85.2,19.3,86.5,18.7,87.2,17.7z M114.7,17.7h-3.1v-5.8h11.6v2.9   c0,7.2-4.9,11.7-12.3,11.7c-8.1,0-13.6-5.6-13.6-13.5s5.5-13.5,13.6-13.5c7.3,0,11.3,4.1,12.3,9.5h-8.6c-0.5-1.5-1.8-2.3-3.6-2.3   c-3.4,0-5.1,2.7-5.1,6.3c0,3.9,2,6.3,5.1,6.3C112.7,19.3,114,18.7,114.7,17.7z M124.3,18h8.8c0.4,1.3,1.6,2,3.3,2   c1.5,0,2.7-0.6,2.7-1.7c0-0.9-0.7-1.1-1.7-1.4l-5.5-1.1c-4.1-0.8-7-2.8-7-7.4c0-5.5,4.8-8.9,10.9-8.9c7,0,10.8,3.8,11.5,8.5h-8.2   c-0.4-1.2-1.4-2-3.2-2c-1.5,0-2.5,0.5-2.5,1.5c0,0.8,0.7,1.1,1.5,1.3l5.6,1.3c4.8,1.1,7.2,3.6,7.2,7.7c0,5.6-5,8.7-10.9,8.7   C129.8,26.5,125.3,23.3,124.3,18z"></path>
</g>
</svg>